<!--
   - Google font: Monsieur La Doulaise
   - Font size: 200px
   - Generated by: https://danmarshall.github.io/google-font-to-svg-path/
  -->
<svg
  width="137.402"
  height="119.401"
  viewBox="0 0 137.402 119.401"
  xmlns="http://www.w3.org/2000/svg"
>
  <g
    id="svgGroup"
    stroke-linecap="round"
    fill-rule="evenodd"
    font-size="9pt"
    stroke="#000000"
    stroke-width="0.1mm"
    fill="#ffffff"
    style="stroke: #000000; stroke-width: 0.1mm; fill: #ffffff"
  >
    <path
      d="M 84 98.4 L 84.4 101.4 Q 57.4 119.4 46.6 119.4 A 7.486 7.486 0 0 1 44.542 119.142 Q 42.235 118.482 41.622 116.126 A 7.661 7.661 0 0 1 41.4 114.2 Q 41.4 109 47.9 102.7 A 157.671 157.671 0 0 1 57.244 94.316 A 135.991 135.991 0 0 1 60.9 91.4 Q 67.4 86.4 67.4 84.2 Q 67.4 83.451 66.171 83.403 A 4.453 4.453 0 0 0 66 83.4 A 9.368 9.368 0 0 0 63.479 83.875 Q 57.47 85.672 42.104 94.28 A 469.201 469.201 0 0 0 41 94.9 A 527.916 527.916 0 0 0 32.755 99.64 Q 21.619 106.185 16.371 110.202 A 40.461 40.461 0 0 0 14.4 111.8 L 7.2 117.8 A 1.775 1.775 0 0 1 6.617 118.164 Q 5.665 118.558 3.646 118.596 A 23.592 23.592 0 0 1 3.2 118.6 A 13.035 13.035 0 0 1 2.195 118.565 Q 0.604 118.441 0.167 117.885 A 0.762 0.762 0 0 1 0 117.4 Q 0 116.8 0.8 115.8 Q 21.8 92.2 47.8 66.4 A 760.049 760.049 0 0 1 79.87 36.299 A 623.873 623.873 0 0 1 98.7 20.3 A 288.492 288.492 0 0 1 107.479 13.401 Q 121.179 3.092 128.667 0.714 A 13.247 13.247 0 0 1 132.6 0 Q 135.861 0 136.907 1.385 A 2.604 2.604 0 0 1 137.4 3 A 7.979 7.979 0 0 1 136.438 6.37 Q 133.117 13.17 118.33 26.758 A 302.153 302.153 0 0 1 117.3 27.7 Q 97.2 46 72.2 64.4 Q 47.2 82.8 29.2 93.6 A 257.945 257.945 0 0 0 26.786 96.396 Q 22.092 101.919 21.228 103.74 A 4.068 4.068 0 0 0 21.2 103.8 A 5.149 5.149 0 0 0 21.618 103.784 Q 22.113 103.744 22.4 103.6 Q 35.2 94.6 49 87.6 Q 62.8 80.6 66.4 80.6 Q 69.337 80.6 70.743 81.532 A 3.067 3.067 0 0 1 71.3 82 A 5.452 5.452 0 0 1 72.105 83.101 A 3.925 3.925 0 0 1 72.6 85 A 9.068 9.068 0 0 1 71.786 88.605 Q 70.336 91.957 66.3 95.8 A 146.558 146.558 0 0 1 56.794 104.125 A 129.345 129.345 0 0 1 53.6 106.6 A 68.879 68.879 0 0 0 51.425 108.295 Q 47.223 111.719 47.2 113.184 A 1.023 1.023 0 0 0 47.2 113.2 A 3.593 3.593 0 0 0 47.339 114.245 Q 47.688 115.393 48.918 115.694 A 4.148 4.148 0 0 0 49.9 115.8 A 9.108 9.108 0 0 0 51.605 115.616 Q 53.408 115.268 55.947 114.265 A 53.179 53.179 0 0 0 58 113.4 Q 63.4 111 67.6 108.5 A 371.48 371.48 0 0 0 70.989 106.457 Q 72.501 105.535 74.179 104.496 A 740.559 740.559 0 0 0 77.7 102.3 A 1877.335 1877.335 0 0 1 79.089 101.43 Q 83.239 98.833 83.903 98.454 A 2.245 2.245 0 0 1 84 98.4 Z M 133.2 4.6 A 1.359 1.359 0 0 0 133.035 3.912 Q 132.626 3.2 131.2 3.2 A 10.857 10.857 0 0 0 126.98 4.38 Q 117.547 8.67 95.298 28.558 A 623.657 623.657 0 0 0 91.7 31.8 A 1048.577 1048.577 0 0 0 56.585 65.128 A 837.596 837.596 0 0 0 35.2 87.2 A 526.238 526.238 0 0 0 61.51 68.973 Q 74.731 59.243 88.984 47.699 A 931.975 931.975 0 0 0 98.6 39.8 Q 133.2 11 133.2 4.6 Z"
      vector-effect="non-scaling-stroke"
    />
  </g>
</svg>
