<!--
   - Google font   : Quintessential
   - Font size     : 150
   - Stroke width  : 0.1mm
   - Stroke        : #000000
   - Fill          : #ffffff
   - Generated by  : https://danmarshall.github.io/google-font-to-svg-path/
  -->
<svg
  width="236.8"
  height="156.592"
  viewBox="0 0 236.8 156.592"
  xmlns="http://www.w3.org/2000/svg"
>
  <g
    id="svgGroup"
    stroke-linecap="round"
    fill-rule="evenodd"
    font-size="9pt"
    stroke="#000000"
    stroke-width="0.1mm"
    fill="#ffffff"
    style="stroke: #000000; stroke-width: 0.1mm; fill: #ffffff"
  >
    <path
      d="M 191.829 112.354 L 190.218 119.092 A 497.547 497.547 0 0 1 188.678 120.591 Q 186.784 122.426 185.361 123.759 A 158.799 158.799 0 0 1 184.908 124.182 A 1344.909 1344.909 0 0 0 183.917 125.105 Q 182.509 126.416 181.576 127.295 Q 180.111 128.613 179.232 129.272 Q 178.446 129.928 177.308 130.993 A 87.298 87.298 0 0 0 177.035 131.25 A 31.518 31.518 0 0 1 174.723 133.225 A 35.55 35.55 0 0 1 174.141 133.667 A 20.904 20.904 0 0 1 170.846 135.681 A 8.239 8.239 0 0 1 168.598 136.419 A 7.348 7.348 0 0 1 167.367 136.523 A 8.042 8.042 0 0 1 166.36 136.464 Q 165.552 136.362 164.95 136.084 A 3.069 3.069 0 0 1 163.824 135.182 A 4.215 4.215 0 0 1 163.411 134.546 A 6.256 6.256 0 0 1 163.004 133.581 Q 162.839 133.086 162.716 132.499 A 13.541 13.541 0 0 1 162.569 131.653 A 21.59 21.59 0 0 1 162.423 130.302 Q 162.313 128.902 162.313 127.075 Q 162.313 120.19 162.716 113.635 A 1731.898 1731.898 0 0 1 163.558 100.708 A 578.051 578.051 0 0 0 164.29 88.11 A 150.833 150.833 0 0 0 164.458 81.019 A 148.116 148.116 0 0 0 164.364 75.732 A 9.761 9.761 0 0 0 163.485 72.4 A 8.6 8.6 0 0 0 161.471 69.653 Q 160.189 68.481 158.431 67.859 A 8.176 8.176 0 0 0 155.763 67.399 Q 155.205 67.394 154.622 67.456 Q 152.572 67.676 150.631 68.628 A 12.189 12.189 0 0 0 148.589 69.908 A 16.81 16.81 0 0 0 146.822 71.484 A 22.413 22.413 0 0 0 145.188 73.361 Q 144.4 74.367 143.612 75.569 A 40.758 40.758 0 0 0 143.087 76.392 Q 141.566 78.837 140.02 82.255 A 80.619 80.619 0 0 0 139.315 83.862 A 107.983 107.983 0 0 0 138.491 85.95 A 142.665 142.665 0 0 0 137.63 88.257 A 114.293 114.293 0 0 0 136.897 90.249 Q 136.53 91.273 136.137 92.421 A 200.968 200.968 0 0 0 135.872 93.201 Q 134.92 96.021 133.968 99.463 L 132.137 128.979 L 120.418 138.135 A 25195.497 25195.497 0 0 1 122.725 110.486 Q 123.861 96.973 124.74 83.899 A 1071.321 1071.321 0 0 0 126.168 58.044 A 594.361 594.361 0 0 0 126.717 32.52 A 199.024 199.024 0 0 0 126.671 28.162 A 153.184 153.184 0 0 0 126.534 24.17 Q 126.351 20.361 126.021 17.468 Q 125.692 14.575 125.179 12.671 A 12.027 12.027 0 0 0 124.891 11.742 Q 124.566 10.835 124.17 10.308 A 2.573 2.573 0 0 0 123.934 10.034 A 4.369 4.369 0 0 0 121.885 9.325 A 5.493 5.493 0 0 0 121.37 9.302 A 5.772 5.772 0 0 0 120.441 9.384 Q 119.483 9.541 118.258 9.998 A 9.102 9.102 0 0 0 116.957 10.616 Q 115.648 11.358 114.068 12.686 A 32.138 32.138 0 0 0 113.827 12.891 Q 115.365 11.572 117.635 9.375 Q 119.906 7.178 122.396 5.09 A 41.849 41.849 0 0 1 125.781 2.523 A 35.458 35.458 0 0 1 127.376 1.501 A 13.461 13.461 0 0 1 128.955 0.678 Q 130.515 0 131.844 0 A 5.066 5.066 0 0 1 135.088 1.177 A 6.924 6.924 0 0 1 135.653 1.685 A 5.539 5.539 0 0 1 136.731 3.267 Q 137.427 4.752 137.672 7.014 A 20.076 20.076 0 0 1 137.703 7.324 Q 137.847 8.685 137.85 10.886 A 69.393 69.393 0 0 1 137.85 10.986 L 137.85 16.333 Q 137.85 33.325 137.081 49.548 A 1283.919 1283.919 0 0 1 135.14 81.885 A 126.076 126.076 0 0 1 139.555 75.43 A 144.343 144.343 0 0 1 141.182 73.242 A 66.619 66.619 0 0 1 147.323 66.197 A 60.491 60.491 0 0 1 148.25 65.295 A 40.718 40.718 0 0 1 153.034 61.37 A 34.483 34.483 0 0 1 156.014 59.509 A 17.971 17.971 0 0 1 160.721 57.673 A 15.607 15.607 0 0 1 164.217 57.275 A 11.106 11.106 0 0 1 166.821 57.565 A 8.113 8.113 0 0 1 169.93 59.033 Q 172.201 60.791 173.519 63.428 Q 174.837 66.064 175.387 69.141 A 36.644 36.644 0 0 1 175.823 72.374 A 28.381 28.381 0 0 1 175.936 74.854 A 137.261 137.261 0 0 1 175.496 85.876 A 1284.157 1284.157 0 0 1 174.581 96.68 Q 174.105 102.026 173.665 107.336 A 128.27 128.27 0 0 0 173.226 117.92 A 29.425 29.425 0 0 0 173.372 120.85 A 9.765 9.765 0 0 0 173.699 122.581 A 8.255 8.255 0 0 0 174.032 123.523 A 5.48 5.48 0 0 0 174.818 124.847 A 4.818 4.818 0 0 0 175.46 125.5 A 3.138 3.138 0 0 0 176.717 126.13 Q 177.182 126.25 177.731 126.267 A 5.933 5.933 0 0 0 177.913 126.27 A 5.493 5.493 0 0 0 180.053 125.814 Q 180.816 125.493 181.594 124.946 A 11.057 11.057 0 0 0 182.125 124.548 A 25.817 25.817 0 0 0 185.682 121.088 A 29.053 29.053 0 0 0 186.153 120.52 A 56.384 56.384 0 0 0 188.946 116.771 A 50.398 50.398 0 0 0 189.522 115.906 A 3249.314 3249.314 0 0 0 190.23 114.819 Q 191.225 113.287 191.829 112.354 Z M 25.277 47.827 L 27.694 22.778 A 5.715 5.715 0 0 1 28.388 20.342 A 6.879 6.879 0 0 1 28.609 19.958 Q 29.188 19.027 30.027 17.87 A 61.051 61.051 0 0 1 30.843 16.772 A 78.112 78.112 0 0 0 31.943 15.286 Q 32.426 14.619 32.947 13.874 A 147.868 147.868 0 0 0 34.029 12.305 A 38.702 38.702 0 0 0 35.505 9.945 Q 36.188 8.768 36.885 7.409 A 74.065 74.065 0 0 0 37.728 5.713 A 9936.468 9936.468 0 0 1 36.796 12.84 Q 36.431 15.621 36.106 18.087 A 4671.751 4671.751 0 0 1 35.494 22.705 A 2547.581 2547.581 0 0 1 35.055 25.994 Q 34.423 30.698 33.956 34.021 Q 33.479 37.414 33.153 39.583 A 218.987 218.987 0 0 1 32.967 40.796 Q 32.63 42.954 32.479 43.932 A 395.174 395.174 0 0 0 32.454 44.092 A 18.424 18.424 0 0 1 34.725 43.255 A 13.393 13.393 0 0 1 37.142 42.773 Q 39.169 42.512 40.846 42.659 A 12.522 12.522 0 0 1 41.244 42.7 Q 43.075 42.92 44.21 43.506 A 5.051 5.051 0 0 1 44.955 43.971 Q 45.352 44.273 45.619 44.627 A 2.776 2.776 0 0 1 45.821 44.934 A 2.13 2.13 0 0 1 46.031 45.443 Q 46.166 45.959 45.993 46.488 A 2.256 2.256 0 0 1 45.931 46.655 Q 45.56 47.397 44.564 48.451 A 19.846 19.846 0 0 1 44.173 48.853 Q 43.276 49.75 41.756 51.055 A 98.346 98.346 0 0 1 40.767 51.892 A 56.474 56.474 0 0 1 39.203 53.149 Q 37.424 54.531 34.936 56.291 A 188.219 188.219 0 0 1 34.578 56.543 Q 34.725 55.298 34.322 54.492 A 4.169 4.169 0 0 0 33.935 53.857 A 3.007 3.007 0 0 0 33.333 53.247 A 4.135 4.135 0 0 0 31.869 52.515 Q 29.818 52.148 28.17 52.075 Q 26.522 52.002 25.35 52.441 A 3.418 3.418 0 0 0 23.614 53.892 A 4.355 4.355 0 0 0 23.519 54.053 A 4.47 4.47 0 0 0 23.104 55.102 Q 22.967 55.622 22.907 56.244 A 10.726 10.726 0 0 0 22.86 57.275 A 17.503 17.503 0 0 0 23.337 61.434 A 14.763 14.763 0 0 0 24.288 64.16 A 27.624 27.624 0 0 0 27.877 69.91 Q 30.037 72.583 32.528 75 Q 35.018 77.417 37.179 79.944 A 26.97 26.97 0 0 1 40.767 85.291 A 13.398 13.398 0 0 1 42.19 91.06 A 15.659 15.659 0 0 1 42.196 91.479 A 13.734 13.734 0 0 1 41.419 95.958 A 17.594 17.594 0 0 1 40.474 98.181 A 31.931 31.931 0 0 1 37.606 102.795 A 38.248 38.248 0 0 1 35.97 104.846 A 45.608 45.608 0 0 1 30.891 109.901 A 51.669 51.669 0 0 1 29.561 110.999 A 59.996 59.996 0 0 1 22.157 116.072 A 56.705 56.705 0 0 1 22.127 116.089 A 2276.205 2276.205 0 0 0 20.864 124.182 A 1867.067 1867.067 0 0 0 19.71 131.763 Q 18.955 136.798 18.338 140.951 A 4178.581 4178.581 0 0 0 17.806 144.543 A 1442.568 1442.568 0 0 0 17.426 147.132 Q 16.89 150.806 16.561 153.223 Q 16.121 156.445 16.121 156.592 A 12.955 12.955 0 0 1 15.998 156.467 Q 15.764 156.226 15.316 155.75 Q 14.775 155.175 14.608 155.131 A 0.099 0.099 0 0 0 14.583 155.127 A 813.405 813.405 0 0 1 14.893 151.515 Q 15.06 149.61 15.253 147.499 A 1326.45 1326.45 0 0 1 15.279 147.217 Q 15.682 142.822 16.195 138.025 A 1847.783 1847.783 0 0 0 17.22 128.174 A 3342.212 3342.212 0 0 1 18.245 118.213 A 45.987 45.987 0 0 1 14.578 119.646 A 37.989 37.989 0 0 1 12.459 120.3 A 23.503 23.503 0 0 1 10.122 120.826 Q 8.908 121.031 7.809 121.063 A 13.814 13.814 0 0 1 7.406 121.069 A 16.213 16.213 0 0 1 5.111 120.915 Q 3.725 120.717 2.572 120.264 A 5.431 5.431 0 0 1 1.459 119.683 Q 0.725 119.174 0.351 118.468 A 3.2 3.2 0 0 1 0.081 117.773 Q -0.203 116.691 0.509 115.298 A 8.003 8.003 0 0 1 0.997 114.478 A 27.322 27.322 0 0 1 2.624 112.312 A 35.264 35.264 0 0 1 4.146 110.596 A 50.183 50.183 0 0 1 8.028 106.897 Q 10.042 105.176 11.141 104.224 Q 10.989 106.658 11.785 108.126 A 3.881 3.881 0 0 0 12.679 109.241 Q 14.325 110.646 17.896 110.929 A 21.264 21.264 0 0 0 18.392 110.962 A 14.498 14.498 0 0 0 19.504 111.004 Q 20.48 111.004 21.527 110.88 A 20.513 20.513 0 0 0 22.494 110.742 Q 24.691 110.376 26.595 109.497 A 11.238 11.238 0 0 0 28.432 108.439 A 9.014 9.014 0 0 0 29.744 107.3 A 4.339 4.339 0 0 0 30.99 104.224 A 19.206 19.206 0 0 0 30.252 98.841 A 17.421 17.421 0 0 0 29.561 96.899 Q 28.133 93.53 26.009 90.527 Q 23.885 87.524 21.358 84.631 Q 18.831 81.738 16.707 78.735 Q 14.583 75.732 13.155 72.437 Q 11.727 69.141 11.727 65.259 A 9.952 9.952 0 0 1 12.216 62.231 A 12.752 12.752 0 0 1 12.862 60.608 A 21.743 21.743 0 0 1 14.872 57.243 A 25.788 25.788 0 0 1 15.865 55.957 A 33.431 33.431 0 0 1 18.996 52.654 A 38.501 38.501 0 0 1 20.186 51.599 A 46.437 46.437 0 0 1 25.277 47.827 Z M 55.379 87.158 L 63.216 74.268 A 7.944 7.944 0 0 0 67.562 72.811 A 9.868 9.868 0 0 0 67.977 72.51 A 10.634 10.634 0 0 0 69.036 71.57 A 13.844 13.844 0 0 0 69.845 70.679 Q 70.76 69.58 71.566 67.932 Q 72.371 66.284 72.957 64.05 A 26.868 26.868 0 0 0 73.414 61.948 Q 73.607 60.864 73.748 59.643 A 47.195 47.195 0 0 0 73.836 58.813 A 128.427 128.427 0 0 1 75.976 44.544 A 111.923 111.923 0 0 1 77.059 39.88 A 62.1 62.1 0 0 1 80.101 30.804 A 49.27 49.27 0 0 1 83.468 24.28 A 33.095 33.095 0 0 1 90.87 15.793 A 30.985 30.985 0 0 1 93.868 13.66 A 25.157 25.157 0 0 1 102.616 10.315 A 34.604 34.604 0 0 1 109.066 9.741 L 110.897 9.741 A 10.675 10.675 0 0 1 112.655 9.888 A 0.472 0.472 0 0 0 112.45 9.945 Q 112.157 10.091 111.687 10.603 A 10.015 10.015 0 0 0 111.446 10.876 Q 110.867 11.556 110.167 12.478 A 62.377 62.377 0 0 0 109.505 13.367 A 122.906 122.906 0 0 0 108.379 14.932 A 150.865 150.865 0 0 0 107.198 16.626 A 245.743 245.743 0 0 1 106.017 18.329 A 204.997 204.997 0 0 1 104.891 19.922 A 67.152 67.152 0 0 1 104.103 21.003 Q 103.79 21.424 103.502 21.794 A 33.463 33.463 0 0 1 102.95 22.485 Q 102.276 23.306 101.906 23.47 A 0.414 0.414 0 0 1 101.742 23.511 Q 96.981 23.511 93.758 24.756 A 13.905 13.905 0 0 0 89.846 27.022 A 12.797 12.797 0 0 0 88.411 28.418 A 15.982 15.982 0 0 0 86.199 31.714 A 21.049 21.049 0 0 0 85.042 34.46 A 45.666 45.666 0 0 0 83.907 38.351 Q 83.41 40.365 83.017 42.627 A 73.503 73.503 0 0 0 82.992 42.773 Q 82.113 48.267 81.673 52.771 A 396.397 396.397 0 0 1 81.247 56.92 Q 81.035 58.883 80.823 60.632 A 237.843 237.843 0 0 1 80.794 60.864 A 57.789 57.789 0 0 1 80.318 64.052 Q 80.012 65.758 79.622 67.236 Q 78.89 70.02 77.389 72.07 A 11.768 11.768 0 0 1 74.839 74.596 A 14.708 14.708 0 0 1 73.36 75.549 A 17.235 17.235 0 0 1 71.065 76.617 Q 69.9 77.065 68.527 77.437 A 35.519 35.519 0 0 1 66.805 77.856 Q 70.247 78.882 72.628 80.09 Q 75.008 81.299 76.473 82.983 A 10.18 10.18 0 0 1 78.461 86.53 A 11.905 11.905 0 0 1 78.597 86.975 A 15.607 15.607 0 0 1 79.036 89.098 Q 79.256 90.673 79.256 92.578 Q 79.256 95.801 78.853 98.84 A 221.748 221.748 0 0 1 77.974 104.846 Q 77.498 107.812 77.096 110.779 A 43.771 43.771 0 0 0 76.693 116.675 A 34.474 34.474 0 0 0 77.027 121.619 Q 77.411 124.262 78.234 126.473 A 18.467 18.467 0 0 0 79.073 128.394 Q 81.453 133.081 85.409 135.864 A 23.737 23.737 0 0 0 93.354 139.457 A 27.562 27.562 0 0 0 94.454 139.709 Q 99.544 140.771 104.891 140.552 A 187.203 187.203 0 0 1 102.419 143.665 A 136.206 136.206 0 0 1 100.13 146.411 A 171.279 171.279 0 0 1 98.226 148.572 A 54.437 54.437 0 0 1 97.292 149.588 A 44.289 44.289 0 0 1 96.395 150.513 Q 95.722 151.186 95.156 151.665 A 12.387 12.387 0 0 1 94.82 151.941 A 7.323 7.323 0 0 1 94.502 152.179 Q 94.037 152.507 93.76 152.563 A 0.714 0.714 0 0 1 93.758 152.563 A 12.858 12.858 0 0 1 91.84 152.776 Q 89.472 152.866 86.617 152.197 A 21.469 21.469 0 0 1 80.018 149.391 A 25.177 25.177 0 0 1 78.853 148.608 Q 75.155 145.972 72.628 141.577 A 18.421 18.421 0 0 1 70.551 135.884 A 25.67 25.67 0 0 1 70.101 130.957 A 45.703 45.703 0 0 1 70.614 124.072 A 215.514 215.514 0 0 1 71.749 117.334 A 215.514 215.514 0 0 0 72.884 110.596 A 45.212 45.212 0 0 0 73.397 103.784 A 13.9 13.9 0 0 0 72.991 100.367 A 11.683 11.683 0 0 0 72.115 97.998 A 14.769 14.769 0 0 0 69.196 94.037 A 17.284 17.284 0 0 0 68.49 93.384 A 21.285 21.285 0 0 0 65.358 91.129 A 27.394 27.394 0 0 0 62.813 89.795 A 42.565 42.565 0 0 0 58.466 88.084 A 53.03 53.03 0 0 0 55.379 87.158 Z M 236.8 76.978 L 228.963 89.868 A 7.944 7.944 0 0 0 224.618 91.324 A 9.868 9.868 0 0 0 224.202 91.626 A 9.8 9.8 0 0 0 222.748 93.027 Q 222.125 93.755 221.527 94.681 A 22.068 22.068 0 0 0 220.614 96.24 A 14.781 14.781 0 0 0 219.596 98.702 Q 218.786 101.232 218.395 104.822 A 50.538 50.538 0 0 0 218.343 105.322 A 140.057 140.057 0 0 1 216.513 118.018 A 129.376 129.376 0 0 1 216.475 118.213 A 87.061 87.061 0 0 1 214.285 127.075 A 75.857 75.857 0 0 1 213.363 129.895 A 53.315 53.315 0 0 1 210.346 136.93 A 46.249 46.249 0 0 1 208.712 139.819 A 33.612 33.612 0 0 1 203.427 146.446 A 30.956 30.956 0 0 1 202.266 147.51 Q 198.568 150.732 193.807 152.527 A 27.635 27.635 0 0 1 187.398 154.069 A 35.233 35.233 0 0 1 183.114 154.321 L 181.283 154.321 A 10.675 10.675 0 0 1 179.525 154.175 A 0.259 0.259 0 0 0 179.576 154.18 Q 179.892 154.18 180.508 153.486 A 8.866 8.866 0 0 0 180.733 153.223 A 41.987 41.987 0 0 0 181.401 152.387 Q 181.694 152.01 182.013 151.588 A 81.178 81.178 0 0 0 182.674 150.696 A 122.906 122.906 0 0 0 183.8 149.13 A 150.865 150.865 0 0 0 184.981 147.437 A 245.743 245.743 0 0 1 186.162 145.734 A 204.997 204.997 0 0 1 187.288 144.141 A 67.152 67.152 0 0 1 188.076 143.059 Q 188.39 142.639 188.678 142.268 A 33.463 33.463 0 0 1 189.229 141.577 Q 189.904 140.756 190.273 140.593 A 0.414 0.414 0 0 1 190.438 140.552 Q 194.083 140.552 196.826 139.843 A 15.772 15.772 0 0 0 198.421 139.343 A 13.523 13.523 0 0 0 202.41 137.046 A 12.563 12.563 0 0 0 203.768 135.718 A 16.177 16.177 0 0 0 206.03 132.337 A 21.036 21.036 0 0 0 207.137 129.712 A 43.059 43.059 0 0 0 208.208 126.09 Q 208.76 123.891 209.188 121.362 Q 210.067 115.869 210.506 111.365 A 396.397 396.397 0 0 1 210.932 107.216 Q 211.144 105.253 211.357 103.504 A 237.843 237.843 0 0 1 211.385 103.271 A 57.789 57.789 0 0 1 211.861 100.084 Q 212.168 98.378 212.557 96.899 Q 213.289 94.116 214.791 92.065 A 11.768 11.768 0 0 1 217.34 89.54 A 14.708 14.708 0 0 1 218.819 88.586 A 18.226 18.226 0 0 1 221.071 87.524 Q 222.246 87.058 223.633 86.66 A 37.884 37.884 0 0 1 225.374 86.206 Q 221.932 85.254 219.552 84.045 Q 217.171 82.837 215.706 81.152 A 10.18 10.18 0 0 1 213.719 77.605 A 11.905 11.905 0 0 1 213.582 77.161 A 15.607 15.607 0 0 1 213.144 75.038 Q 212.923 73.463 212.923 71.558 Q 212.923 68.335 213.326 65.295 Q 213.729 62.256 214.205 59.253 A 291.389 291.389 0 0 0 215.084 53.32 Q 215.487 50.391 215.487 47.388 A 34.474 34.474 0 0 0 215.152 42.444 Q 214.768 39.8 213.945 37.589 A 18.467 18.467 0 0 0 213.106 35.669 Q 210.726 30.981 206.771 28.198 A 23.737 23.737 0 0 0 198.825 24.606 A 27.562 27.562 0 0 0 197.725 24.353 Q 192.635 23.291 187.288 23.511 A 238.451 238.451 0 0 1 189.76 20.453 A 177.13 177.13 0 0 1 192.049 17.725 A 171.279 171.279 0 0 1 193.953 15.564 A 89.924 89.924 0 0 1 194.878 14.548 A 70.921 70.921 0 0 1 195.748 13.623 A 20.631 20.631 0 0 1 196.359 13.01 Q 196.667 12.715 196.952 12.47 A 10.599 10.599 0 0 1 197.286 12.195 Q 197.859 11.743 198.258 11.613 A 1.135 1.135 0 0 1 198.421 11.572 Q 200.645 11.096 203.386 11.461 A 22.741 22.741 0 0 1 205.562 11.865 A 21.469 21.469 0 0 1 212.161 14.671 A 25.177 25.177 0 0 1 213.326 15.454 A 20.735 20.735 0 0 1 218.193 20.387 A 25.448 25.448 0 0 1 219.552 22.522 A 18.753 18.753 0 0 1 221.661 28.416 A 25.929 25.929 0 0 1 222.078 33.179 A 45.94 45.94 0 0 1 221.566 40.027 A 193.752 193.752 0 0 1 220.431 46.765 A 201.877 201.877 0 0 0 219.295 53.467 A 45.212 45.212 0 0 0 218.783 60.278 A 13.959 13.959 0 0 0 219.229 63.863 A 11.984 11.984 0 0 0 220.064 66.101 A 14.423 14.423 0 0 0 223.392 70.453 A 16.588 16.588 0 0 0 223.69 70.715 A 22.379 22.379 0 0 0 226.639 72.842 A 29.27 29.27 0 0 0 229.366 74.304 A 40.715 40.715 0 0 0 233.832 76.087 A 50.431 50.431 0 0 0 236.8 76.978 Z"
      vector-effect="non-scaling-stroke"
    />
  </g>
</svg>
